HIERARCHY
ROOT Hips
{
  OFFSET 5.84602e-005 68.8428 3.50346
  CHANNELS 6 Xposition Yposition Zposition Zrotation Xrotation Yrotation
  JOINT Spine
  {
    OFFSET 0 8.597 -4.6522
    CHANNELS 3 Zrotation Xrotation Yrotation
    JOINT Spine1
    {
      OFFSET 0 7.8454 0.4098
      CHANNELS 3 Zrotation Xrotation Yrotation
      JOINT Spine2
      {
        OFFSET 0 9.7078 -2.1609
        CHANNELS 3 Zrotation Xrotation Yrotation
        JOINT Neck
        {
          OFFSET 0 21.8761 -0.4549
          CHANNELS 3 Zrotation Xrotation Yrotation
          JOINT Head
          {
            OFFSET 0 12.3537 3.3602
            CHANNELS 3 Zrotation Xrotation Yrotation
            End Site
            {
              OFFSET 0.0001 18.9506 0.5657
            }
          }
        }
        JOINT LeftShoulder
        {
          OFFSET 2.2086 21.1115 7.2329
          CHANNELS 3 Zrotation Xrotation Yrotation
          JOINT LeftArm
          {
            OFFSET 13.1193 3.0282 -4.8998
            CHANNELS 3 Zrotation Xrotation Yrotation
            JOINT LeftForeArm
            {
              OFFSET 27.4081 -0.0973053 -0.2375
              CHANNELS 3 Zrotation Xrotation Yrotation
              JOINT LeftHand
              {
                OFFSET 22.8641 0.0662994 -0.1369
                CHANNELS 3 Zrotation Xrotation Yrotation
                JOINT LeftHandIndex1
                {
                  OFFSET 8.8614 0.775009 2.4612
                  CHANNELS 3 Zrotation Xrotation Yrotation
                  JOINT LeftHandIndex2
                  {
                    OFFSET 3.3146 -0.808304 0.5841
                    CHANNELS 3 Zrotation Xrotation Yrotation
                    JOINT LeftHandIndex3
                    {
                      OFFSET 2.2628 -0.552002 0.3989
                      CHANNELS 3 Zrotation Xrotation Yrotation
                      End Site
                      {
                        OFFSET 1.6102 -0.4807 0.2612
                      }
                    }
                  }
                }
                JOINT LeftHandMiddle1
                {
                  OFFSET 8.9937 0.895004 0.2143
                  CHANNELS 3 Zrotation Xrotation Yrotation
                  JOINT LeftHandMiddle2
                  {
                    OFFSET 4.0984 0.0113983 -0.0242
                    CHANNELS 3 Zrotation Xrotation Yrotation
                    JOINT LeftHandMiddle3
                    {
                      OFFSET 2.2716 0.00689697 -0.0138001
                      CHANNELS 3 Zrotation Xrotation Yrotation
                      End Site
                      {
                        OFFSET 2.0404 -0.1441 0.0027
                      }
                    }
                  }
                }
                JOINT LeftHandRing1
                {
                  OFFSET 8.5234 0.597198 -2.0164
                  CHANNELS 3 Zrotation Xrotation Yrotation
                  JOINT LeftHandRing2
                  {
                    OFFSET 3.7188 -0.188293 -0.2328
                    CHANNELS 3 Zrotation Xrotation Yrotation
                    JOINT LeftHandRing3
                    {
                      OFFSET 2.1191 -0.106598 -0.1332
                      CHANNELS 3 Zrotation Xrotation Yrotation
                      End Site
                      {
                        OFFSET 1.8737 -0.2304 -0.0886
                      }
                    }
                  }
                }
                JOINT LeftHandPinky1
                {
                  OFFSET 7.9094 -0.601089 -3.4825
                  CHANNELS 3 Zrotation Xrotation Yrotation
                  JOINT LeftHandPinky2
                  {
                    OFFSET 2.2874 -0.477005 -0.6314
                    CHANNELS 3 Zrotation Xrotation Yrotation
                    JOINT LeftHandPinky3
                    {
                      OFFSET 1.6774 -0.349396 -0.4633
                      CHANNELS 3 Zrotation Xrotation Yrotation
                      End Site
                      {
                        OFFSET 1.4888 -0.4091 -0.3416
                      }
                    }
                  }
                }
                JOINT LeftHandThumb1
                {
                  OFFSET 1.833 -1.3875 1.3896
                  CHANNELS 3 Zrotation Xrotation Yrotation
                  JOINT LeftHandThumb2
                  {
                    OFFSET 3.4129 -1.121 2.5732
                    CHANNELS 3 Zrotation Xrotation Yrotation
                    JOINT LeftHandThumb3
                    {
                      OFFSET 2.2474 -0.804199 1.6192
                      CHANNELS 3 Zrotation Xrotation Yrotation
                      End Site
                      {
                        OFFSET 1.6527 -0.5689 1.1317
                      }
                    }
                  }
                }
              }
            }
          }
        }
        JOINT RightShoulder
        {
          OFFSET -2.2086 21.1115 7.2329
          CHANNELS 3 Zrotation Xrotation Yrotation
          JOINT RightArm
          {
            OFFSET -13.1216 3.0287 -4.9007
            CHANNELS 3 Zrotation Xrotation Yrotation
            JOINT RightForeArm
            {
              OFFSET -27.4081 -0.0973053 -0.2375
              CHANNELS 3 Zrotation Xrotation Yrotation
              JOINT RightHand
              {
                OFFSET -22.8641 0.0664063 -0.1369
                CHANNELS 3 Zrotation Xrotation Yrotation
                JOINT RightHandIndex1
                {
                  OFFSET -8.8614 0.774994 2.4612
                  CHANNELS 3 Zrotation Xrotation Yrotation
                  JOINT RightHandIndex2
                  {
                    OFFSET -3.3146 -0.808304 0.5841
                    CHANNELS 3 Zrotation Xrotation Yrotation
                    JOINT RightHandIndex3
                    {
                      OFFSET -2.2628 -0.552002 0.3989
                      CHANNELS 3 Zrotation Xrotation Yrotation
                      End Site
                      {
                        OFFSET -1.6102 -0.4807 0.2612
                      }
                    }
                  }
                }
                JOINT RightHandMiddle1
                {
                  OFFSET -8.9937 0.894989 0.2143
                  CHANNELS 3 Zrotation Xrotation Yrotation
                  JOINT RightHandMiddle2
                  {
                    OFFSET -4.0984 0.0113983 -0.0242
                    CHANNELS 3 Zrotation Xrotation Yrotation
                    JOINT RightHandMiddle3
                    {
                      OFFSET -2.2716 0.00691223 -0.0138001
                      CHANNELS 3 Zrotation Xrotation Yrotation
                      End Site
                      {
                        OFFSET -2.0404 -0.1441 0.0027
                      }
                    }
                  }
                }
                JOINT RightHandRing1
                {
                  OFFSET -8.5234 0.597198 -2.0164
                  CHANNELS 3 Zrotation Xrotation Yrotation
                  JOINT RightHandRing2
                  {
                    OFFSET -3.7188 -0.188309 -0.2328
                    CHANNELS 3 Zrotation Xrotation Yrotation
                    JOINT RightHandRing3
                    {
                      OFFSET -2.1191 -0.106598 -0.1332
                      CHANNELS 3 Zrotation Xrotation Yrotation
                      End Site
                      {
                        OFFSET -1.8737 -0.2304 -0.0886
                      }
                    }
                  }
                }
                JOINT RightHandPinky1
                {
                  OFFSET -7.9094 -0.601105 -3.4825
                  CHANNELS 3 Zrotation Xrotation Yrotation
                  JOINT RightHandPinky2
                  {
                    OFFSET -2.2874 -0.477005 -0.6314
                    CHANNELS 3 Zrotation Xrotation Yrotation
                    JOINT RightHandPinky3
                    {
                      OFFSET -1.6774 -0.349396 -0.4633
                      CHANNELS 3 Zrotation Xrotation Yrotation
                      End Site
                      {
                        OFFSET -1.4888 -0.4091 -0.3416
                      }
                    }
                  }
                }
                JOINT RightHandThumb1
                {
                  OFFSET -1.833 -1.38751 1.3896
                  CHANNELS 3 Zrotation Xrotation Yrotation
                  JOINT RightHandThumb2
                  {
                    OFFSET -3.41299 -1.12099 2.5732
                    CHANNELS 3 Zrotation Xrotation Yrotation
                    JOINT RightHandThumb3
                    {
                      OFFSET -2.24741 -0.804108 1.6192
                      CHANNELS 3 Zrotation Xrotation Yrotation
                      End Site
                      {
                        OFFSET -1.6527 -0.5689 1.1317
                      }
                    }
                  }
                }
              }
            }
          }
        }
      }
    }
  }
  JOINT RightUpLeg
  {
    OFFSET -9.1966 3.8861 -0.7581
    CHANNELS 3 Zrotation Xrotation Yrotation
    JOINT RightLeg
    {
      OFFSET -0.7359 -41.0265 0
      CHANNELS 3 Zrotation Xrotation Yrotation
      JOINT RightFoot
      {
        OFFSET 0 -40.2855 0
        CHANNELS 3 Zrotation Xrotation Yrotation
        JOINT RightToeBase
        {
          OFFSET 0 -5.6122 11.7359
          CHANNELS 3 Zrotation Xrotation Yrotation
          End Site
          {
            OFFSET 0 0 7.8731
          }
        }
      }
    }
  }
  JOINT LeftUpLeg
  {
    OFFSET 9.1965 3.8864 -0.7581
    CHANNELS 3 Zrotation Xrotation Yrotation
    JOINT LeftLeg
    {
      OFFSET 0.7359 -41.0268 0
      CHANNELS 3 Zrotation Xrotation Yrotation
      JOINT LeftFoot
      {
        OFFSET 0 -40.2855 0
        CHANNELS 3 Zrotation Xrotation Yrotation
        JOINT LeftToeBase
        {
          OFFSET 0 -5.6122 11.7359
          CHANNELS 3 Zrotation Xrotation Yrotation
          End Site
          {
            OFFSET 0 0 7.8731
          }
        }
      }
    }
  }
}
MOTION
Frames:	4
Frame Time:	0.0333333
5.84602e-005 68.8428 3.50346 0 0 -0 0 0 -0 0 0 -0 0 0 -0 0 0 -0 0 0 -0 0 0 -0 0 0 -0 0 0 -0 0 0 -0 0 0 -0 0 0 -0 0 0 -0 0 0 -0 -0.0146107 -8.87603e-005 -2.63497e-007 2.99804e-018 -2.42657e-020 -1.42182e-022 0 0 -0 -0.0187562 -0.001176 5.858e-005 5.06224e-018 3.88251e-019 1.21329e-020 0 0 -0 -0.012269 -0.00324817 0.000675346 -1.74678e-018 3.88251e-019 -0 0 0 -0 0 0 -0 0 0 -0 0 0 -0 0 0 -0 0 0 -0 0 0 -0 0 0 -0 0 0 -0 0 0 -0 0 0 -0 0.0149955 -9.10982e-005 2.64101e-007 -9.69331e-018 1.21329e-020 -4.7394e-023 0 0 -0 0.0189956 -0.00119102 -5.96516e-005 -5.41541e-019 0 2.42657e-020 0 0 -0 0.0122698 -0.00324857 -0.000673756 -2.00796e-019 0 -1.94126e-019 0 0 -0 0 0 -0 0 0 -0 3.39842 1.33031 -0.0637918 -5.65207e-008 0.834868 -0.000436188 -3.39935 -2.16518 -0.0642563 -8.89002e-024 -1.18485e-023 -1.48106e-024 -3.39844 1.35642 0.0640283 -3.18788e-007 0.782166 -0.000588827 3.39931 -2.13858 0.0634662 1.1399e-023 0 -0 
-0.888875 1.28425 5.75645 -180 -78.9819 -180 0.120305 1.02537 -0.27165 0.24553 2.05013 -0.545584 0.24553 2.05014 -0.545584 12 -0.979079 0.206602 10.9996 2.58766e-005 -6.21764e-006 -1.69041 -4.24042 -2.02787 -79.4256 2.33994 -14.2935 -0.179744 8.22097 -41.2066 -46.5492 3.85363 11.617 -5.56597e-015 -1.82882e-014 6.36111e-015 -6.75868e-015 -7.95139e-015 6.36111e-015 -3.18055e-015 -1.11319e-014 6.36111e-015 -5.56597e-015 -1.82882e-014 6.36111e-015 -0.0146267 -8.65797e-005 -1.05947e-005 6.42955e-007 -3.01959e-007 1.14846e-006 -5.56597e-015 -1.82882e-014 6.36111e-015 -0.0187865 -0.00117877 4.97064e-005 5.56597e-015 1.59028e-015 -6.36111e-015 -5.56597e-015 -1.82882e-014 6.36111e-015 -0.0122826 -0.00325396 0.000675481 2.38542e-015 -7.95139e-016 3.18055e-015 -5.56597e-015 -1.82882e-014 6.36111e-015 -6.75868e-015 -7.95139e-015 6.36111e-015 -3.18055e-015 -1.11319e-014 6.36111e-015 -15.1708 -5.977 14.2767 67.9351 -2.67416 23.5477 5.20957 17.7086 77.0172 61.6414 -0.75028 20.353 4.13329e-007 4.90322e-008 9.12383e-008 4.13329e-007 4.90322e-008 9.12384e-008 4.13329e-007 4.90322e-008 9.12383e-008 4.13329e-007 4.90322e-008 9.12383e-008 0.0150143 -9.13289e-005 7.14476e-007 4.13325e-007 4.90441e-008 9.12316e-008 4.13329e-007 4.90322e-008 9.12383e-008 0.0189803 -0.00119001 -5.80772e-005 4.13325e-007 4.90478e-008 9.12259e-008 4.13329e-007 4.90322e-008 9.12383e-008 0.0122476 -0.00324024 -0.000675877 4.13328e-007 4.90451e-008 9.12216e-008 4.13329e-007 4.90322e-008 9.12383e-008 4.13329e-007 4.90322e-008 9.12384e-008 4.13329e-007 4.90322e-008 9.12383e-008 -12.9895 -18.2367 -9.72961 56.1888 75.1696 -64.2602 2.71588 32.8619 -3.91839 4.14046e-008 2.06598e-006 2.98204e-006 9.84446 -19.8038 11.8204 -80.7857 77.8967 88.3148 -2.09345 26.4378 7.00519 1.56978e-008 4.76589e-007 -5.4931e-007 
-0.88872 1.43728 5.90208 -180 -79.6484 -180 0.122513 0.926937 -0.275206 0.249528 1.85324 -0.552503 0.249528 1.85322 -0.552503 12.4996 -0.97684 0.215074 10.9997 -0.272762 0.0529102 -1.42093 -3.80076 -1.67576 -79.5133 2.42052 -14.0085 -0.215796 8.34015 -42.6021 -46.5458 3.52457 11.9162 7.95139e-016 -3.18055e-015 -0 -3.57812e-015 -3.18055e-015 3.18055e-015 -3.57812e-015 3.18055e-015 -6.36111e-015 7.95139e-016 -3.18055e-015 -0 -0.0146212 -8.87329e-005 3.35615e-006 1.98785e-015 -3.18055e-015 -0 7.95139e-016 -3.18055e-015 -0 -0.0187584 -0.00117748 5.536e-005 1.15295e-014 -1.59028e-015 -6.36111e-015 7.95139e-016 -3.18055e-015 -0 -0.0122943 -0.00325475 0.000675284 6.41159e-007 -3.03189e-007 1.15048e-006 7.95139e-016 -3.18055e-015 -0 -3.57812e-015 -3.18055e-015 3.18055e-015 -3.57812e-015 3.18055e-015 -6.36111e-015 -15.7206 -6.84938 13.5438 68.437 -2.36801 23.4331 5.28836 18.0469 77.3454 61.2463 -1.67464 20.1421 -4.135e-007 -4.95765e-008 -9.08355e-008 -1.05883e-006 -1.95246e-007 -1.09951e-006 -4.135e-007 -4.95765e-008 -9.08355e-008 -4.135e-007 -4.95765e-008 -9.08355e-008 0.0149911 -9.25038e-005 -1.78361e-006 -3.65887e-007 3.578e-007 -1.62828e-007 -4.135e-007 -4.95765e-008 -9.08355e-008 0.0190008 -0.00119044 -6.22959e-005 -4.13497e-007 -4.9592e-008 -9.0823e-008 -4.135e-007 -4.95765e-008 -9.08355e-008 0.0122562 -0.00324573 -0.000676679 -4.135e-007 -4.95894e-008 -9.08186e-008 -4.135e-007 -4.95765e-008 -9.08355e-008 -1.05883e-006 -1.95246e-007 -1.09951e-006 -4.135e-007 -4.95765e-008 -9.08355e-008 -12.8715 -18.8524 -9.55747 56.1255 75.1591 -64.1872 3.12395 32.5943 -4.12854 2.03454e-007 -1.99716e-007 2.67766e-006 9.82647 -20.3529 11.8126 -80.7017 77.8939 88.2246 -2.2411 26.1682 7.00999 -1.98785e-016 1.59028e-015 1.59028e-015 
-0.88858 1.58963 6.04687 -180 -80.3153 -180 0.124835 0.827937 -0.278736 0.253736 1.65527 -0.559362 0.253736 1.65527 -0.559362 12.9993 -0.975113 0.223641 11.0001 -0.545545 0.105821 -1.1542 -3.35943 -1.32567 -79.6014 2.50067 -13.7232 -0.249001 8.46044 -44.0013 -46.5408 3.19544 12.2154 -1.11319e-014 -3.97569e-015 -0 -1.84297e-006 9.84821e-007 -2.09878e-006 7.95139e-016 -7.95139e-016 -3.18055e-015 -1.11319e-014 -3.97569e-015 -0 -0.014588 -8.69006e-005 -2.0013e-006 -2.78299e-015 -7.95139e-016 -3.18055e-015 -1.11319e-014 -3.97569e-015 -0 -0.0187664 -0.00117687 5.97788e-005 6.38515e-007 -3.03405e-007 1.15183e-006 -1.11319e-014 -3.97569e-015 -0 -0.0122532 -0.00324013 0.000671481 6.3936e-007 -3.03604e-007 1.15192e-006 -1.11319e-014 -3.97569e-015 -0 -1.84297e-006 9.84821e-007 -2.09878e-006 7.95139e-016 -7.95139e-016 -3.18055e-015 -16.2838 -7.71652 12.7997 68.9397 -2.0627 23.3157 5.36527 18.3858 77.6738 60.8471 -2.59869 19.9244 8.27303e-007 1.00238e-007 1.80902e-007 -2.38542e-015 -3.18055e-015 4.77083e-015 8.27303e-007 1.00238e-007 1.80902e-007 8.27303e-007 1.00238e-007 1.80902e-007 0.0149656 -9.31078e-005 -1.62286e-006 8.27298e-007 1.00262e-007 1.80888e-007 8.27303e-007 1.00238e-007 1.80902e-007 0.0189866 -0.00118918 -5.9535e-005 8.27298e-007 1.00269e-007 1.80877e-007 8.27303e-007 1.00238e-007 1.80902e-007 0.0122523 -0.00324596 -0.000674684 8.27303e-007 1.00263e-007 1.80868e-007 8.27303e-007 1.00238e-007 1.80902e-007 -2.38542e-015 -3.18055e-015 4.77083e-015 8.27303e-007 1.00238e-007 1.80902e-007 -12.7513 -19.468 -9.38316 56.0629 75.1487 -64.1147 3.52958 32.3251 -4.33579 -1.58474e-006 -4.78178e-007 8.41029e-007 9.80824 -20.9029 11.8045 -80.6205 77.8912 88.1374 -2.3884 25.8984 7.01401 2.98177e-015 1.59028e-015 -3.18055e-015 
